<?xml version="1.0" encoding="UTF-8" standalone="no"?>
<svg
   xmlns:dc="http://purl.org/dc/elements/1.1/"
   xmlns:cc="http://creativecommons.org/ns#"
   xmlns:rdf="http://www.w3.org/1999/02/22-rdf-syntax-ns#"
   xmlns:svg="http://www.w3.org/2000/svg"
   xmlns="http://www.w3.org/2000/svg"
   xmlns:sodipodi="http://sodipodi.sourceforge.net/DTD/sodipodi-0.dtd"
   xmlns:inkscape="http://www.inkscape.org/namespaces/inkscape"
   width="30"
   height="30"
   viewBox="0 0 24 24"
   version="1.1"
   id="svg3765"
   sodipodi:docname="doner_marker_grey_30.svg"
   inkscape:version="0.92.4 (unknown)">
  <metadata
     id="metadata3771">
    <rdf:RDF>
      <cc:Work
         rdf:about="">
        <dc:format>image/svg+xml</dc:format>
        <dc:type
           rdf:resource="http://purl.org/dc/dcmitype/StillImage" />
        <dc:title></dc:title>
      </cc:Work>
    </rdf:RDF>
  </metadata>
  <defs
     id="defs3769" />
  <sodipodi:namedview
     pagecolor="#ffffff"
     bordercolor="#fff"
     borderopacity="1"
     objecttolerance="10"
     gridtolerance="10"
     guidetolerance="10"
     inkscape:pageopacity="0"
     inkscape:pageshadow="2"
     inkscape:window-width="1920"
     inkscape:window-height="1019"
     id="namedview3767"
     showgrid="false"
     inkscape:zoom="2"
     inkscape:cx="-130.75"
     inkscape:cy="12"
     inkscape:window-x="0"
     inkscape:window-y="28"
     inkscape:window-maximized="1"
     inkscape:current-layer="svg3765" />
  <g
     id="surface1">
    <path
       style="fill:#404040;fill-opacity:1;fill-rule:nonzero;stroke:none"
       d="m 19.199219,5.308594 -3.953125,-1.363282 0.9375,-2.722656 C 16.265625,0.988281 16.140625,0.734375 15.90625,0.652344 15.671875,0.574219 15.417969,0.699219 15.335938,0.933594 l -0.9375,2.71875 -3.953126,-1.359375 C 9.703125,2.035156 8.894531,2.414062 8.640625,3.15625 8.632812,3.175781 8.613281,3.242188 8.613281,3.246094 L 5.808594,19.15625 c -0.035156,0.21875 0.089844,0.433594 0.296875,0.503906 l 2.488281,0.855469 -0.777344,2.257813 c -0.082031,0.234374 0.042969,0.492187 0.277344,0.574218 0.234375,0.07813 0.488281,-0.04687 0.570312,-0.28125 l 0.777344,-2.257812 2.488282,0.855468 c 0.207031,0.07422 0.4375,-0.01953 0.539062,-0.210937 L 20.058594,7.1875 c 0,-0.00391 0.03125,-0.085938 0.03516,-0.085938 C 20.332031,6.363281 19.9375,5.5625 19.199219,5.308594 Z M 18.765625,7.699219 15.566406,6.597656 C 15.332031,6.515625 15.074219,6.640625 14.992188,6.875 c -0.07813,0.234375 0.04687,0.488281 0.28125,0.570312 l 3.066406,1.058594 -1.195313,2.25 -1.964843,-0.675781 c -0.234376,-0.082031 -0.488282,0.04297 -0.570313,0.277344 -0.08203,0.234375 0.04297,0.488281 0.277344,0.570312 l 1.828125,0.628907 -1.195313,2.253906 -2.980469,-1.027344 c -0.234374,-0.08203 -0.492187,0.04297 -0.570312,0.277344 -0.08203,0.234375 0.04297,0.488281 0.277344,0.570312 l 2.847656,0.980469 -1.199219,2.25 -1.667969,-0.574219 c -0.234374,-0.07813 -0.488281,0.04297 -0.570312,0.28125 -0.07813,0.234375 0.04687,0.488282 0.28125,0.570313 l 1.53125,0.527343 -1.609375,3.027344 -5.097656,-1.753906 0.292969,-1.675781 2.410156,0.828125 c 0.234375,0.08203 0.492187,-0.04297 0.570312,-0.277344 0.08203,-0.234375 -0.042968,-0.488281 -0.277344,-0.570312 l -2.542968,-0.875 0.441406,-2.511719 3.8125,1.3125 c 0.234375,0.08203 0.488281,-0.04297 0.570312,-0.277344 0.07813,-0.234375 -0.04297,-0.492187 -0.277343,-0.570313 L 7.8125,12.960938 l 0.445312,-2.511719 3.089844,1.0625 c 0.234375,0.08203 0.488282,-0.04297 0.570313,-0.277344 C 11.996094,11 11.871094,10.746094 11.636719,10.664062 L 8.414062,9.554688 8.855469,7.042969 10.890625,7.742188 C 11.125,7.824219 11.378906,7.699219 11.460938,7.464844 11.539062,7.230469 11.414062,6.976562 11.179688,6.894531 L 9.015625,6.148438 9.492188,3.445312 C 9.59375,3.1875 9.886719,3.050781 10.152344,3.140625 l 8.757812,3.015625 c 0.265625,0.09375 0.410156,0.378906 0.332032,0.648438 z m 0,0"
       id="path3762"
       inkscape:connector-curvature="0" />
  </g>
</svg>
